<svg xmlns="http://www.w3.org/2000/svg" width="32" height="32" data-name="Layer 1" viewBox="0 0 32 32"><path fill="#ffba00" d="M19.5,3.5v6h-7v13h-6V5.5a2.0059,2.0059,0,0,1,2-2Z"/><polygon fill="#ea4335" points="19.5 3.5 19.5 9.5 25.5 9.5 19.5 3.5"/><rect width="6" height="14" x="19.5" y="9.5" fill="#4285f4"/><rect width="6" height="7" x="13" y="22" fill="#00ac47" transform="rotate(90 16 25.5)"/><path fill="#0066da" d="M21.5,22.5h4a0,0,0,0,1,0,0v6a0,0,0,0,1,0,0h-6a0,0,0,0,1,0,0v-4A2,2,0,0,1,21.5,22.5Z" transform="rotate(180 22.5 25.5)"/><path fill="#188038" d="M6.5,22.5h6a0,0,0,0,1,0,0v6a0,0,0,0,1,0,0h-4a2,2,0,0,1-2-2v-4A0,0,0,0,1,6.5,22.5Z"/></svg>