<svg xmlns="http://www.w3.org/2000/svg" width="32" height="32" data-name="Layer 1" viewBox="0 0 32 32"><path fill="#00ac47" d="M9.635,22.365l3.182,3.1819a1.9715,1.9715,0,0,0,1.4236.5764,2.0626,2.0626,0,0,0,1.4369-.6084l5.2712-5.2713-4.5961-4.5962Z"/><path fill="#fbc02d" d="M9.635,22.365,6.4531,19.183a1.9715,1.9715,0,0,1-.5764-1.4236,2.0626,2.0626,0,0,1,.6084-1.4369l5.2713-5.2712,4.5962,4.5961Z"/><path fill="#4285f4" d="M25.8152,14.6214l.3061-6.67a1.976,1.976,0,0,0-.5764-1.4963l-9.1923,9.1923,4.5961,4.5962,4.2648-4.2647A2.0562,2.0562,0,0,0,25.8152,14.6214Z"/><path fill="#ea4435" d="M17.3786,6.1848l6.67-.3061a1.976,1.976,0,0,1,1.4963.5764l-9.1923,9.1923-4.5962-4.5961,4.2647-4.2648A2.0562,2.0562,0,0,1,17.3786,6.1848Z"/><circle cx="16.353" cy="15.647" r="2.75" fill="#4285f4"/><circle cx="22.009" cy="9.991" r="1.25" fill="#fff"/><path fill="#fff" d="M16.3525,19.8975a4.25,4.25,0,1,1,3.0049-7.2549l-1.06,1.06a2.8154,2.8154,0,0,0-3.8887,0,2.7505,2.7505,0,0,0,3.5188,4.2011,2.7637,2.7637,0,0,0,1.072-1.5067H16.3525v-1.5h3.6683a.5817.5817,0,0,1,.5817.5817h0a4.4779,4.4779,0,0,1-.878,2.7567A4.2382,4.2382,0,0,1,16.3525,19.8975Z"/></svg>